LG_Stand_to_Walk02																		
version=1																		
nRows=99																		
nColumns=19																		
inDegrees=yes																		
endheader																		
time	ground_force2_vx	ground_force2_vy	ground_force2_vz	ground_force2_px	ground_force2_py	ground_force2_pz	ground_torque2_x	ground_torque2_y	ground_torque2_z	ground_force1_vx	ground_force1_vy	ground_force1_vz	ground_force1_px	ground_force1_py	ground_force1_pz	ground_torque1_x	ground_torque1_y	ground_torque1_z
4.49	-42.351856	364.56897	1.104031	0.196026	0	-0.320954	2.00E-06	1.132836	2.00E-06	0	0	0	-0.13	0	0.305	0	0	0
4.491	-42.6647	364.574036	1.339222	0.196088	0	-0.321167	9.00E-06	1.132836	5.00E-06	0	0	0	-0.13	0	0.305	0	0	0
4.492	-42.6647	364.56897	1.652504	0.196088	0	-0.321167	9.00E-06	1.157841	3.00E-06	0	0	0	-0.13	0	0.305	0	0	0
4.493	-42.6647	365.093201	1.652504	0.196028	0	-0.321167	-1.00E-06	1.157841	5.00E-06	0	0	0	-0.13	0	0.305	0	0	0
4.494	-42.507557	364.405457	1.417633	0.195718	0	-0.321194	-1.00E-06	1.157841	3.00E-06	0	0	0	-0.13	0	0.305	0	0	0
4.495	-42.821846	363.704987	1.417633	0.195785	0	-0.322016	5.00E-06	1.158583	6.00E-06	0	0	0	-0.13	0	0.305	0	0	0
4.496	-42.74255	363.704987	1.417633	0.195785	0	-0.322016	5.00E-06	1.172263	4.00E-06	0	0	0	-0.13	0	0.305	0	0	0
4.497	-42.74255	363.704987	1.339222	0.195785	0	-0.322049	5.00E-06	1.172263	5.00E-06	0	0	0	-0.13	0	0.305	0	0	0
4.498	-42.741112	363.010284	1.339222	0.195623	0	-0.322277	5.00E-06	1.172263	4.00E-06	0	0	0	-0.13	0	0.305	0	0	0
4.499	-42.271118	361.635132	1.417473	0.195623	0	-0.322277	7.00E-06	1.078052	4.00E-06	0	0	0	-0.13	0	0.305	0	0	0
4.5	-41.644703	361.635132	1.574455	0.195904	0	-0.321827	7.00E-06	1.118846	3.00E-06	0	0	0	-0.13	0	0.305	0	0	0
4.501	-41.644703	360.604553	1.652666	0.195904	0	-0.321827	8.00E-06	1.07809	0	0	0	0	-0.13	0	0.305	0	0	0
4.502	-41.569736	359.743988	1.652666	0.195726	0	-0.321583	4.00E-06	1.118846	0.00E+00	0	0	0	-0.13	0	0.305	0	0	0
4.503	-41.56757	359.743988	1.652626	0.195586	0	-0.322162	8.00E-06	1.119978	0	0	0	0	-0.13	0	0.305	0	0	0
4.504	-41.56757	360.781982	1.652626	0.195586	0	-0.321583	3.00E-06	1.119978	2.00E-06	0	0	0	-0.13	0	0.305	0	0	0
4.505	-41.56757	361.123718	1.495964	0.195596	0	-0.321236	8.00E-06	1.036156	2.00E-06	0	0	0	-0.13	0	0.305	0	0	0
4.506	-41.646866	361.123718	1.495964	0.195675	0	-0.321236	8.00E-06	0.940244	5.00E-06	0	0	0	-0.13	0	0.305	0	0	0
4.507	-41.646866	361.123718	1.495964	0.195702	0	-0.321919	8.00E-06	1.036156	8.00E-06	0	0	0	-0.13	0	0.305	0	0	0
4.508	-41.646866	360.771179	1.339304	0.195702	0	-0.321941	6.00E-06	1.084517	5.00E-06	0	0	0	-0.13	0	0.305	0	0	0
4.509	-41.725437	360.771179	1.339304	0.195702	0	-0.322184	6.00E-06	1.166126	3.00E-06	0	0	0	-0.13	0	0.305	0	0	0
4.51	-42.039005	361.634827	1.339304	0.195422	0	-0.321941	7.00E-06	1.166126	2.00E-06	0	0	0	-0.13	0	0.305	0	0	0
4.511	-42.039005	361.645996	1.495924	0.195732	0	-0.321777	7.00E-06	1.136515	3.00E-06	0	0	0	-0.13	0	0.305	0	0	0
4.512	-41.726883	361.634827	1.495924	0.19557	0	-0.321777	7.00E-06	1.10186	3.00E-06	0	0	0	-0.13	0	0.305	0	0	0
4.513	-41.647587	361.614746	1.495924	0.196142	0	-0.322286	5.00E-06	1.136515	3.00E-06	0	0	0	-0.13	0	0.305	0	0	0
4.514	-41.726883	361.614746	1.339504	0.195995	0	-0.322929	9.00E-06	1.10186	4.00E-06	0	0	0	-0.13	0	0.305	0	0	0
4.515	-42.117577	360.778107	1.652746	0.195995	0	-0.322561	1.10E-05	1.11871	2.00E-06	0	0	0	-0.13	0	0.305	0	0	0
4.516	-42.117577	360.063385	2.044519	0.195225	0	-0.32284	1.10E-05	1.11871	4.00E-06	0	0	0	-0.13	0	0.305	0	0	0
4.517	-42.351131	360.063385	2.201382	0.195225	0	-0.32284	1.10E-05	1.15757	1.00E-06	0	0	0	-0.13	0	0.305	0	0	0
4.518	-42.429707	360.063385	2.201382	0.195285	0	-0.323546	2.00E-06	1.159532	1.00E-06	0	0	0	-0.13	0	0.305	0	0	0
4.519	-42.429707	359.205505	2.201382	0.195305	0	-0.324139	2.00E-06	1.159532	1.00E-06	0	0	0	-0.13	0	0.305	0	0	0
4.52	-42.195427	358.518127	2.592995	0.195305	0	-0.323894	6.00E-06	1.159532	6.00E-06	0	0	0	-0.13	0	0.305	0	0	0
4.521	-41.729046	357.139191	2.828106	0.195196	0	-0.323894	9.00E-06	1.15825	6.00E-06	0	0	0	-0.13	0	0.305	0	0	0
4.522	-41.647587	357.139191	2.828106	0.195196	0	-0.323233	1.20E-05	1.030707	6.00E-06	0	0	0	-0.13	0	0.305	0	0	0
4.523	-41.571182	357.139191	3.063259	0.194886	0	-0.323233	1.20E-05	1.030707	6.00E-06	0	0	0	-0.13	0	0.305	0	0	0
4.524	-41.410427	356.791626	2.514744	0.195104	0	-0.323501	1.10E-05	1.097443	4.00E-06	0	0	0	-0.13	0	0.305	0	0	0
4.525	-41.571182	356.791626	3.14171	0.195104	0	-0.323519	6.00E-06	1.111633	4.00E-06	0	0	0	-0.13	0	0.305	0	0	0
4.526	-41.413315	356.791626	3.376741	0.195355	0	-0.323519	6.00E-06	1.111633	4.00E-06	0	0	0	-0.13	0	0.305	0	0	0
4.527	-41.413315	357.120239	3.376741	0.195355	0	-0.323519	8.00E-06	1.111633	3.00E-06	0	0	0	-0.13	0	0.305	0	0	0
4.528	-41.258331	356.275909	3.219999	0.195155	0	-0.323709	8.00E-06	1.126131	2.00E-06	0	0	0	-0.13	0	0.305	0	0	0
4.529	-41.258331	356.275909	3.14175	0.194661	0	-0.323709	8.00E-06	1.135306	2.00E-06	0	0	0	-0.13	0	0.305	0	0	0
4.53	-41.258331	356.275909	3.219999	0.195155	0	-0.323598	1.00E-05	1.188535	2.00E-06	0	0	0	-0.13	0	0.305	0	0	0
4.531	-41.256889	357.308105	3.455072	0.195212	0	-0.323598	1.00E-05	1.188535	2.00E-06	0	0	0	-0.13	0	0.305	0	0	0
4.532	-41.256889	357.308105	3.455072	0.195212	0	-0.323606	1.00E-05	1.15704	-1.00E-06	0	0	0	-0.13	0	0.305	0	0	0
4.533	-41.651917	355.919525	3.611895	0.195187	0	-0.324496	8.00E-06	1.15704	-1.00E-06	0	0	0	-0.13	0	0.305	0	0	0
4.534	-41.651917	355.913696	3.925297	0.194902	0	-0.324048	8.00E-06	1.197327	1.00E-06	0	0	0	-0.13	0	0.305	0	0	0
4.535	-41.57262	355.571228	3.925297	0.194902	0	-0.324137	4.00E-06	1.197327	2.00E-06	0	0	0	-0.13	0	0.305	0	0	0
4.536	-41.570461	355.571228	4.003828	0.194902	0	-0.324137	1.10E-05	1.197327	6.00E-06	0	0	0	-0.13	0	0.305	0	0	0
4.537	-41.105515	355.571228	3.768515	0.194759	0	-0.325338	1.10E-05	1.199922	6.00E-06	0	0	0	-0.13	0	0.305	0	0	0
4.538	-41.105515	355.385651	3.768515	0.194871	0	-0.325753	1.10E-05	1.233569	6.00E-06	0	0	0	-0.13	0	0.305	0	0	0
4.539	-41.026222	355.385651	3.768515	0.194623	0	-0.325753	6.00E-06	1.233569	4.00E-06	0	0	0	-0.13	0	0.305	0	0	0
4.54	-41.18409	355.385651	3.768837	0.194619	0	-0.325753	6.00E-06	1.241182	1.00E-06	0	0	0	-0.13	0	0.305	0	0	0
4.541	-41.026222	354.874542	3.847048	0.194619	0	-0.326239	-2.00E-06	1.224852	1.00E-06	0	0	0	-0.13	0	0.305	0	0	0
4.542	-41.10696	353.819214	3.847048	0.19374	0	-0.326239	0.00E+00	1.237572	3.00E-06	0	0	0	-0.13	0	0.305	0	0	0
4.543	-41.026222	352.269409	4.238861	0.194125	0	-0.325664	0	1.222488	3.00E-06	0	0	0	-0.13	0	0.305	0	0	0
4.544	-41.026222	351.769104	4.395683	0.193888	0	-0.325664	1.00E-06	1.118139	2.00E-06	0	0	0	-0.13	0	0.305	0	0	0
4.545	-40.789062	351.2453	4.944157	0.193888	0	-0.325668	1.00E-06	1.088493	1.00E-06	0	0	0	-0.13	0	0.305	0	0	0
4.546	-41.026222	351.240295	4.944157	0.193888	0	-0.325671	-2.00E-06	1.118139	2.00E-06	0	0	0	-0.13	0	0.305	0	0	0
4.547	-40.789062	351.074036	5.100819	0.194125	0	-0.325927	-2.00E-06	1.121916	5.00E-06	0	0	0	-0.13	0	0.305	0	0	0
4.548	-40.559116	351.074036	5.257601	0.194212	0	-0.325927	4.00E-06	1.121916	5.00E-06	0	0	0	-0.13	0	0.305	0	0	0
4.549	-40.558399	350.21582	5.335892	0.194169	0	-0.325819	8.00E-06	1.087002	6.00E-06	0	0	0	-0.13	0	0.305	0	0	0
4.55	-40.007668	350.042603	5.257601	0.194169	0	-0.325819	8.00E-06	1.087002	4.00E-06	0	0	0	-0.13	0	0.305	0	0	0
4.551	-40.091293	349.857483	5.101019	0.194114	0	-0.326341	1.10E-05	1.116322	4.00E-06	0	0	0	-0.13	0	0.305	0	0	0
4.552	-40.091293	349.857483	5.022528	0.194097	0	-0.326341	1.10E-05	1.201144	4.00E-06	0	0	0	-0.13	0	0.305	0	0	0
4.553	-40.401253	349.857483	5.101019	0.194097	0	-0.326341	1.10E-05	1.201144	2.00E-06	0	0	0	-0.13	0	0.305	0	0	0
4.554	-40.401253	349.862457	5.17939	0.194097	0	-0.32644	7.00E-06	1.112061	2.00E-06	0	0	0	-0.13	0	0.305	0	0	0
4.555	-40.401253	349.862457	5.17939	0.193713	0	-0.326636	4.00E-06	1.112061	2.00E-06	0	0	0	-0.13	0	0.305	0	0	0
4.556	-40.244827	350.552124	5.257681	0.194682	0	-0.326717	7.00E-06	1.199034	3.00E-06	0	0	0	-0.13	0	0.305	0	0	0
4.557	-40.716259	351.753662	5.257681	0.194708	0	-0.326636	5.00E-06	1.208733	3.00E-06	0	0	0	-0.13	0	0.305	0	0	0
4.558	-40.40197	350.878052	5.257681	0.194708	0	-0.327037	1.00E-05	1.208733	0	0	0	0	-0.13	0	0.305	0	0	0
4.559	-40.478382	350.878052	5.257681	0.194332	0	-0.327672	5.00E-06	1.208733	0.00E+00	0	0	0	-0.13	0	0.305	0	0	0
4.56	-40.478382	350.878052	5.336052	0.193837	0	-0.327672	7.00E-06	1.214457	4.00E-06	0	0	0	-0.13	0	0.305	0	0	0
4.561	-40.712654	349.149231	5.336052	0.193903	0	-0.327672	7.00E-06	1.067267	4.00E-06	0	0	0	-0.13	0	0.305	0	0	0
4.562	-40.712654	349.504883	5.336052	0.193837	0	-0.327464	7.00E-06	1.118246	3.00E-06	0	0	0	-0.13	0	0.305	0	0	0
4.563	-40.712654	349.308105	5.17939	0.193819	0	-0.328584	3.00E-06	1.118246	3.00E-06	0	0	0	-0.13	0	0.305	0	0	0
4.564	-40.479824	349.308105	5.727863	0.193819	0	-0.328909	3.00E-06	1.143755	1.00E-06	0	0	0	-0.13	0	0.305	0	0	0
4.565	-40.481266	348.45993	5.884808	0.194117	0	-0.328909	3.00E-06	1.156765	3.00E-06	0	0	0	-0.13	0	0.305	0	0	0
4.566	-40.247715	348.096619	5.884808	0.194117	0	-0.328909	7.00E-06	1.156765	5.00E-06	0	0	0	-0.13	0	0.305	0	0	0
4.567	-40.247715	346.05304	5.963018	0.193673	0	-0.32905	7.00E-06	1.170993	5.00E-06	0	0	0	-0.13	0	0.305	0	0	0
4.568	-40.247715	347.41275	5.493034	0.192883	0	-0.32905	7.00E-06	1.170993	5.00E-06	0	0	0	-0.13	0	0.305	0	0	0
4.569	-40.245548	346.219299	5.571203	0.193256	0	-0.328444	7.00E-06	1.166051	5.00E-06	0	0	0	-0.13	0	0.305	0	0	0
4.57	-40.245548	346.219299	5.571203	0.193256	0	-0.328098	2.00E-06	1.09908	4.00E-06	0	0	0	-0.13	0	0.305	0	0	0
4.571	-40.168419	345.360657	5.571203	0.193256	0	-0.32826	1.00E-06	1.166051	5.00E-06	0	0	0	-0.13	0	0.305	0	0	0
4.572	-40.168419	344.844971	5.257961	0.193291	0	-0.32826	1.00E-06	1.113076	5.00E-06	0	0	0	-0.13	0	0.305	0	0	0
4.573	-40.168419	342.43457	5.257961	0.193291	0	-0.32826	2.00E-06	1.171611	5.00E-06	0	0	0	-0.13	0	0.305	0	0	0
4.574	-40.00983	342.43457	5.257961	0.193291	0	-0.328607	5.00E-06	1.113076	4.00E-06	0	0	0	-0.13	0	0.305	0	0	0
4.575	-40.00983	344.325806	5.493116	0.193148	0	-0.328152	4.00E-06	1.049409	3.00E-06	0	0	0	-0.13	0	0.305	0	0	0
4.576	-40.011276	344.486633	5.02281	0.193148	0	-0.329062	5.00E-06	1.049409	3.00E-06	0	0	0	-0.13	0	0.305	0	0	0
4.577	-40.167698	344.325806	5.02281	0.193258	0	-0.329062	5.00E-06	1.041351	3.00E-06	0	0	0	-0.13	0	0.305	0	0	0
4.578	-40.089848	343.798096	4.86639	0.193584	0	-0.329062	5.00E-06	1.041351	4.00E-06	0	0	0	-0.13	0	0.305	0	0	0
4.579	-40.089848	343.798096	4.86639	0.193584	0	-0.329144	5.00E-06	1.041351	3.00E-06	0	0	0	-0.13	0	0.305	0	0	0
4.58	-40.089848	342.942993	4.396286	0.193638	0	-0.329209	5.00E-06	1.01307	4.00E-06	0	0	0	-0.13	0	0.305	0	0	0
4.581	-39.937752	344.306091	4.396286	0.193437	0	-0.32925	6.00E-06	1.172486	4.00E-06	0	0	0	-0.13	0	0.305	0	0	0
4.582	-40.167698	344.306091	4.474575	0.193154	0	-0.329504	6.00E-06	1.168673	5.00E-06	0	0	0	-0.13	0	0.305	0	0	0
4.583	-39.937752	344.306091	4.474575	0.192794	0	-0.329974	6.00E-06	1.168673	5.00E-06	0	0	0	-0.13	0	0.305	0	0	0
4.584	-40.167698	346.201141	4.552786	0.192919	0	-0.329974	5.00E-06	1.16424	5.00E-06	0	0	0	-0.13	0	0.305	0	0	0
4.585	-40.168419	343.953156	4.317995	0.19281	0	-0.330081	5.00E-06	1.067452	6.00E-06	0	0	0	-0.13	0	0.305	0	0	0
4.586	-40.168419	343.953156	4.239746	0.192919	0	-0.330313	-1.00E-06	1.16424	6.00E-06	0	0	0	-0.13	0	0.305	0	0	0
4.587	-40.246269	343.262726	4.239746	0.19281	0	-0.330353	-1.00E-06	1.119708	0	0	0	0	-0.13	0	0.305	0	0	0
4.588	-40.246269	342.574158	4.396406	0.192763	0	-0.33138	5.00E-06	1.119708	0	0	0	0	-0.13	0	0.305	0	0	0
